<svg width="25" height="24" viewBox="0 0 25 24" fill="none" xmlns="http://www.w3.org/2000/svg">
<path fill-rule="evenodd" clip-rule="evenodd" d="M12.4 1.25C12.2011 1.25 12.0103 1.32902 11.8697 1.46967C11.729 1.61032 11.65 1.80109 11.65 2V12.973L9.97002 11.012C9.90594 10.9371 9.82774 10.8756 9.73988 10.831C9.65203 10.7864 9.55625 10.7595 9.458 10.7519C9.35976 10.7443 9.26098 10.7561 9.1673 10.7866C9.07362 10.8172 8.98687 10.8659 8.91202 10.93C8.83717 10.9941 8.77567 11.0723 8.73104 11.1601C8.68641 11.248 8.65952 11.3438 8.6519 11.442C8.64429 11.5403 8.6561 11.639 8.68666 11.7327C8.71722 11.8264 8.76594 11.9131 8.83002 11.988L11.83 15.488C11.9004 15.5703 11.9878 15.6364 12.0862 15.6818C12.1846 15.7271 12.2917 15.7506 12.4 15.7506C12.5084 15.7506 12.6154 15.7271 12.7138 15.6818C12.8122 15.6364 12.8996 15.5703 12.97 15.488L15.97 11.988C16.0341 11.9131 16.0828 11.8264 16.1134 11.7327C16.1439 11.639 16.1558 11.5403 16.1481 11.442C16.1405 11.3438 16.1136 11.248 16.069 11.1601C16.0244 11.0723 15.9629 10.9941 15.888 10.93C15.8132 10.8659 15.7264 10.8172 15.6327 10.7866C15.5391 10.7561 15.4403 10.7443 15.342 10.7519C15.2438 10.7595 15.148 10.7864 15.0602 10.831C14.9723 10.8756 14.8941 10.9371 14.83 11.012L13.15 12.972V2C13.15 1.80109 13.071 1.61032 12.9304 1.46967C12.7897 1.32902 12.5989 1.25 12.4 1.25Z" fill="#4881AD"/>
<path d="M14.65 9V9.378C15.1174 9.21188 15.6266 9.20492 16.0983 9.35821C16.57 9.51151 16.9779 9.81645 17.2583 10.2256C17.5387 10.6347 17.6761 11.1251 17.6489 11.6203C17.6217 12.1156 17.4315 12.588 17.108 12.964L14.108 16.464C13.8968 16.7103 13.6348 16.908 13.34 17.0436C13.0452 17.1792 12.7245 17.2493 12.4 17.2493C12.0755 17.2493 11.7549 17.1792 11.4601 17.0436C11.1653 16.908 10.9033 16.7103 10.692 16.464L7.69202 12.964C7.36941 12.5878 7.18002 12.1156 7.15328 11.6207C7.12654 11.1259 7.26393 10.636 7.54413 10.2272C7.82433 9.81843 8.23165 9.5136 8.70285 9.36004C9.17406 9.20648 9.68278 9.2128 10.15 9.378V9H8.40002C5.57202 9 4.15702 9 3.27902 9.879C2.40002 10.757 2.40002 12.172 2.40002 15V16C2.40002 18.828 2.40002 20.243 3.27902 21.121C4.15702 22 5.57202 22 8.40002 22H16.4C19.228 22 20.643 22 21.521 21.121C22.4 20.243 22.4 18.828 22.4 16V15C22.4 12.172 22.4 10.757 21.521 9.879C20.643 9 19.228 9 16.4 9H14.65Z" fill="#4881AD"/>
</svg>
