<svg width="27" height="27" viewBox="0 0 27 27" fill="none" xmlns="http://www.w3.org/2000/svg">
<g clip-path="url(#clip0_391_133)">
<path d="M15.6667 9.16659H5.5556C5.36405 9.16659 5.18035 9.09049 5.04491 8.95505C4.90947 8.81961 4.83337 8.63591 4.83337 8.44436V5.55547C4.83337 5.36393 4.90947 5.18023 5.04491 5.04479C5.18035 4.90934 5.36405 4.83325 5.5556 4.83325H15.6667C15.8583 4.83325 16.042 4.90934 16.1774 5.04479C16.3129 5.18023 16.389 5.36393 16.389 5.55547V8.44436C16.389 8.63591 16.3129 8.81961 16.1774 8.95505C16.042 9.09049 15.8583 9.16659 15.6667 9.16659ZM6.27782 7.72214H14.9445V6.23436H6.27782V7.72214Z" fill="#343C6A"/>
<path d="M15.6667 10.6689H5.5556C5.36405 10.6689 5.18035 10.745 5.04491 10.8805C4.90947 11.0159 4.83337 11.1996 4.83337 11.3912V14.2223C4.83337 14.4138 4.90947 14.5975 5.04491 14.733C5.18035 14.8684 5.36405 14.9445 5.5556 14.9445H13.7601L16.389 12.2723V11.3912C16.389 11.1996 16.3129 11.0159 16.1774 10.8805C16.042 10.745 15.8583 10.6689 15.6667 10.6689ZM14.9445 13.5001H6.27782V12.0556H14.9445V13.5001Z" fill="#343C6A"/>
<path d="M8.48781 23.2571V23.2138L8.71892 22.2099H3.38891V3.38878H17.8334V10.7916L19.2778 9.42656V2.66656C19.2778 2.47501 19.2018 2.29131 19.0663 2.15587C18.9309 2.02043 18.7472 1.94434 18.5556 1.94434H2.66668C2.47514 1.94434 2.29144 2.02043 2.15599 2.15587C2.02055 2.29131 1.94446 2.47501 1.94446 2.66656V22.8888C1.94446 23.0803 2.02055 23.264 2.15599 23.3995C2.29144 23.5349 2.47514 23.611 2.66668 23.611H8.44448C8.45033 23.4921 8.46481 23.3739 8.48781 23.2571Z" fill="#343C6A"/>
<path d="M16.3889 14.345L15.8256 14.9155C15.9653 14.8867 16.0934 14.8171 16.1937 14.7156C16.2939 14.6141 16.3619 14.4851 16.3889 14.345Z" fill="black"/>
<path d="M4.83337 19.9567C4.83337 20.1482 4.90947 20.3319 5.04491 20.4674C5.18035 20.6028 5.36405 20.6789 5.5556 20.6789H9.05116L9.26783 19.74L9.36172 19.3428V19.3067H6.27782V17.8334H10.8567L12.3012 16.3889H5.5556C5.36405 16.3889 5.18035 16.465 5.04491 16.6004C4.90947 16.7359 4.83337 16.9196 4.83337 17.1111V19.9567Z" fill="#343C6A"/>
<path d="M24.6873 12.5395L22.2534 10.1056C22.1454 9.9973 22.0171 9.91137 21.8758 9.85273C21.7345 9.7941 21.583 9.76392 21.4301 9.76392C21.2771 9.76392 21.1256 9.7941 20.9844 9.85273C20.8431 9.91137 20.7147 9.9973 20.6067 10.1056L10.705 20.0651L9.88892 23.5389C9.85836 23.6888 9.85767 23.8432 9.88689 23.9934C9.91612 24.1435 9.97467 24.2864 10.0592 24.4139C10.1437 24.5413 10.2526 24.6509 10.3795 24.7362C10.5065 24.8215 10.649 24.881 10.7989 24.9112C10.8734 24.9184 10.9484 24.9184 11.0228 24.9112C11.1113 24.925 11.2015 24.925 11.29 24.9112L14.7928 24.1384L24.6873 14.2223C24.7954 14.1149 24.8812 13.9872 24.9397 13.8465C24.9982 13.7058 25.0284 13.5549 25.0284 13.4026C25.0284 13.2502 24.9982 13.0993 24.9397 12.9586C24.8812 12.8179 24.7954 12.6902 24.6873 12.5828V12.5395ZM14.0562 22.8239L11.4128 23.4089L12.0556 20.7873L19.4801 13.2834L21.5167 15.3201L14.0562 22.8239ZM22.3328 14.5039L20.2962 12.4673L21.4445 11.3334L23.4956 13.3845L22.3328 14.5039Z" fill="#343C6A"/>
</g>
<defs>
<clipPath id="clip0_391_133">
<rect width="26.0001" height="26" fill="white" transform="translate(0.5 0.5)"/>
</clipPath>
</defs>
</svg>
